<?xml version="1.0" encoding="UTF-8" standalone="no"?>
<!-- Created with Inkscape (http://www.inkscape.org/) -->

<svg
   width="99.707161mm"
   height="124.82692mm"
   viewBox="0 0 99.707161 124.82692"
   version="1.1"
   id="svg1"
   xml:space="preserve"
   xmlns="http://www.w3.org/2000/svg"
   xmlns:svg="http://www.w3.org/2000/svg"><defs
     id="defs1" /><g
     id="layer1"
     transform="translate(-72.554849,-81.622755)"><path
       style="fill:#000000"
       d="m 72.627506,206.09902 c -0.074,-0.19286 -0.095,-16.77232 -0.0466,-36.84323 0.0802,-33.28346 0.1284,-36.71362 0.54785,-39.00612 1.4471,-7.90917 5.09409,-14.84545 10.94192,-20.81063 5.84635,-5.96368 14.0877,-10.32222 22.637544,-11.97217 5.03361,-0.97139 8.45768,-1.157551 17.89598,-0.97297 8.39919,0.16425 8.8238,0.1496 8.68856,-0.299836 -0.0782,-0.259888 -1.12017,-2.556118 -2.31549,-5.102733 -2.40876,-5.131879 -2.69049,-6.284888 -1.85927,-7.609189 1.34554,-2.143704 3.64596,-2.452053 6.19261,-0.830061 0.77601,0.494244 4.3176,2.723831 7.87022,4.954638 3.55262,2.230807 8.06665,5.073315 10.03118,6.316685 1.96453,1.243369 6.04707,3.794246 9.0723,5.668606 8.43427,5.22567 9.20159,5.76441 9.61324,6.74963 0.20045,0.47975 0.36446,1.05055 0.36446,1.26845 0,0.66546 -1.47357,2.12184 -3.2289,3.19122 -0.91624,0.5582 -2.26121,1.39657 -2.98881,1.86305 -0.72761,0.46648 -4.00182,2.51424 -7.27604,4.55058 -3.27422,2.03634 -10.06078,6.29696 -15.08125,9.46804 -5.02047,3.17108 -9.65218,5.92542 -10.29268,6.12076 -2.96248,0.90347 -5.46536,-1.63899 -4.51594,-4.58735 0.17878,-0.55519 1.26214,-2.95995 2.40746,-5.34391 1.14532,-2.38396 2.08241,-4.41941 2.08241,-4.52323 0,-0.25148 -5.75436,-0.53326 -10.84792,-0.5312 -7.29956,0.003 -12.70658,0.71491 -16.40417,2.16 -5.73648,2.24193 -9.934014,6.87821 -11.393384,12.58431 -0.49507,1.93572 -0.51287,3.25212 -0.51287,37.9463 v 35.94101 h -10.72392 c -8.66003,0 -10.74983,-0.0675 -10.85849,-0.35065 z"
       id="path1" /></g></svg>
